HIERARCHY
ROOT Hips
{
	OFFSET -0.001795 -0.223333 0.028219
	CHANNELS 6 Xposition Yposition Zposition Zrotation Yrotation Xrotation 
	JOINT LeftUpLeg
	{
		OFFSET 0.069520 -0.091406 -0.006815
		CHANNELS 3 Zrotation Yrotation Xrotation
		JOINT LeftLeg
		{
			OFFSET 0.034277 -0.375199 -0.004496
			CHANNELS 3 Zrotation Yrotation Xrotation
			JOINT LeftFoot
			{
				OFFSET -0.013596 -0.397961 -0.043693
				CHANNELS 3 Zrotation Yrotation Xrotation
				JOINT LeftToe
				{
					OFFSET 0.026358 -0.055791 0.119288
					CHANNELS 3 Zrotation Yrotation Xrotation
					End Site
					{
						OFFSET 0.000000 0.000000 0.000000
					}
				}
			}
		}
	}
	JOINT RightUpLeg
	{
		OFFSET -0.067670 -0.090522 -0.004320
		CHANNELS 3 Zrotation Yrotation Xrotation
		JOINT RightLeg
		{
			OFFSET -0.038290 -0.382569 -0.008850
			CHANNELS 3 Zrotation Yrotation Xrotation
			JOINT RightFoot
			{
				OFFSET 0.015774 -0.398415 -0.042312
				CHANNELS 3 Zrotation Yrotation Xrotation
				JOINT RightToe
				{
					OFFSET -0.025372 -0.048144 0.123348
					CHANNELS 3 Zrotation Yrotation Xrotation
					End Site
					{
						OFFSET 0.000000 0.000000 0.000000
					}
				}
			}
		}
	}
	JOINT Spine
	{
		OFFSET -0.002533 0.108963 -0.026696
		CHANNELS 3 Zrotation Yrotation Xrotation
		JOINT Spine1
		{
			OFFSET 0.005487 0.135180 0.001092
			CHANNELS 3 Zrotation Yrotation Xrotation
			JOINT Spine2
			{
				OFFSET 0.001457 0.052922 0.025425
				CHANNELS 3 Zrotation Yrotation Xrotation
				JOINT Neck
				{
					OFFSET -0.002778 0.213870 -0.042857
					CHANNELS 3 Zrotation Yrotation Xrotation
					JOINT Head
					{
						OFFSET 0.005152 0.064970 0.051349
						CHANNELS 3 Zrotation Yrotation Xrotation
						End Site
						{
							OFFSET 0.000000 0.000000 0.000000
						}
					}
				}
				JOINT LeftShoulder
				{
					OFFSET 0.078845 0.121749 -0.034090
					CHANNELS 3 Zrotation Yrotation Xrotation
					JOINT LeftArm
					{
						OFFSET 0.090977 0.030469 -0.008868
						CHANNELS 3 Zrotation Yrotation Xrotation
						JOINT LeftForeArm
						{
							OFFSET 0.259612 -0.012772 -0.027456
							CHANNELS 3 Zrotation Yrotation Xrotation
							JOINT LeftHand
							{
								OFFSET 0.249234 0.008986 -0.001171
								CHANNELS 3 Zrotation Yrotation Xrotation
								End Site
								{
									OFFSET 0.000000 0.000000 0.000000
								}
							}
						}
					}
				}
				JOINT RightShoulder
				{
					OFFSET -0.081759 0.118833 -0.038615
					CHANNELS 3 Zrotation Yrotation Xrotation
					JOINT RightArm
					{
						OFFSET -0.096012 0.032551 -0.009143
						CHANNELS 3 Zrotation Yrotation Xrotation
						JOINT RightForeArm
						{
							OFFSET -0.253742 -0.013329 -0.021401
							CHANNELS 3 Zrotation Yrotation Xrotation
							JOINT RightHand
							{
								OFFSET -0.255298 0.007772 -0.005559
								CHANNELS 3 Zrotation Yrotation Xrotation
								End Site
								{
									OFFSET 0.000000 0.000000 0.000000
								}
							}
						}
					}
				}
			}
		}
	}
}
MOTION
Frames: 15
Frame Time: 0.050000
0.000000 0.946015 0.000000 -0.242153 -4.508502 7.964708 5.386517 -0.339067 -4.832378 -0.429942 0.211223 -5.230383 1.491957 5.969145 9.805743 0.000000 0.000000 0.000000 -3.553371 0.585873 -5.851111 -1.250006 -0.096561 -4.312990 -0.128859 -5.386781 10.790081 0.000000 0.000000 0.000000 5.505255 0.294034 -5.202270 -2.742361 1.217551 -5.342233 -3.083810 5.500350 5.925237 6.954696 -3.072736 -13.924283 0.000000 0.000000 0.000000 -17.416129 0.466957 -2.663445 -55.601538 -7.250988 -3.270497 -7.632957 -12.879559 1.263298 0.000000 0.000000 0.000000 15.553095 -7.070769 -4.332025 63.604959 5.336844 -3.185645 6.699329 16.057459 1.440942 0.000000 0.000000 0.000000 
0.000585 0.945128 0.000350 -0.384380 -5.004484 8.744455 5.589675 -0.339594 -4.828530 -0.445375 0.239913 -6.023406 1.652633 6.236878 10.003320 0.000000 0.000000 0.000000 -3.563590 0.670904 -6.901694 -1.403549 -0.064984 -3.816030 0.240574 -4.902645 11.226039 0.000000 0.000000 0.000000 6.367637 0.378452 -6.011049 -3.202293 1.400377 -5.267932 -3.681195 6.100408 5.178100 7.516165 -3.293625 -14.366372 0.000000 0.000000 0.000000 -18.352267 0.919740 -3.168678 -54.376658 -7.161649 -3.121343 -8.248385 -12.199066 1.246259 0.000000 0.000000 0.000000 15.436527 -8.367072 -4.922374 64.195232 4.486839 -3.535703 7.406752 16.078903 1.537993 0.000000 0.000000 0.000000 
0.000949 0.945095 0.000494 -0.125135 -4.867386 8.450157 5.034016 -0.356128 -4.984195 -0.114848 0.177233 -4.887825 1.303741 5.321077 8.682653 0.000000 0.000000 0.000000 -3.563455 0.660319 -6.808754 -1.861791 -0.038458 -3.847363 -0.271929 -5.914337 11.326778 0.000000 0.000000 0.000000 6.135280 0.356611 -5.792338 -3.171710 1.378866 -5.905592 -3.842318 5.944511 5.241160 7.149500 -3.401158 -12.438256 0.000000 0.000000 0.000000 -17.711270 0.559831 -2.857536 -54.464104 -6.525656 -3.451044 -8.118296 -11.623460 1.175794 0.000000 0.000000 0.000000 16.057731 -7.207154 -4.413028 63.036089 3.968627 -3.834871 7.642926 16.204312 1.577623 0.000000 0.000000 0.000000 
0.001198 0.944940 0.000687 -0.074243 -4.840311 8.959656 5.350305 -0.367409 -5.250288 -0.719990 0.242036 -5.557592 0.978824 4.928690 9.377969 0.000000 0.000000 0.000000 -3.709958 0.712900 -7.485618 -1.804839 -0.048832 -3.971138 -0.470875 -6.546856 12.059524 0.000000 0.000000 0.000000 6.140206 0.376171 -6.091035 -3.286069 1.433269 -5.446775 -3.624685 5.598735 3.826671 7.300258 -3.622811 -11.664610 0.000000 0.000000 0.000000 -17.795648 1.357347 -3.249213 -54.927161 -6.694085 -3.266536 -7.926242 -10.800386 1.071919 0.000000 0.000000 0.000000 14.737692 -7.693794 -4.573979 63.531358 3.466297 -3.936254 8.923373 16.446814 1.749823 0.000000 0.000000 0.000000 
0.001346 0.945339 0.000810 0.103466 -4.507943 8.868091 4.818096 -0.387992 -5.360265 -0.420426 0.212937 -5.304548 1.089441 5.082501 9.089001 0.000000 0.000000 0.000000 -3.743141 0.706778 -7.446215 -2.134886 -0.037423 -4.135433 -0.670972 -6.845406 11.960193 0.000000 0.000000 0.000000 5.811287 0.369750 -6.104768 -2.979193 1.312562 -5.327789 -3.723945 5.257677 3.611569 6.831616 -3.318591 -11.653720 0.000000 0.000000 0.000000 -17.397408 1.227561 -3.097347 -55.177604 -6.951299 -3.156859 -8.453435 -10.394019 1.077199 0.000000 0.000000 0.000000 14.401178 -7.588410 -4.497760 63.330057 3.340044 -3.972105 9.072313 16.305575 1.745728 0.000000 0.000000 0.000000 
0.001410 0.945593 0.000981 0.176635 -4.443635 8.972655 4.847691 -0.386504 -5.295115 -0.549585 0.229950 -5.558308 1.170682 5.277694 9.266953 0.000000 0.000000 0.000000 -3.860226 0.702401 -7.387197 -2.276081 -0.048373 -4.475271 -0.678435 -6.980443 12.357441 0.000000 0.000000 0.000000 5.620153 0.374931 -6.224624 -2.882361 1.271150 -5.462902 -3.636358 5.264307 3.503202 6.899973 -3.392293 -11.455927 0.000000 0.000000 0.000000 -17.419612 1.378619 -3.187118 -55.164207 -6.952267 -3.142711 -8.283155 -10.340620 1.055939 0.000000 0.000000 0.000000 14.087717 -7.404837 -4.362316 63.509754 3.269277 -3.996151 9.041189 16.450131 1.759109 0.000000 0.000000 0.000000 
0.001408 0.945718 0.001089 0.178459 -4.352390 8.902890 4.619784 -0.393332 -5.325246 -0.401145 0.215298 -5.419100 1.291810 5.539540 9.422066 0.000000 0.000000 0.000000 -3.760068 0.687031 -7.177356 -2.334330 -0.056078 -4.673100 -0.604852 -6.808576 12.292489 0.000000 0.000000 0.000000 5.557939 0.373616 -6.218510 -2.885235 1.273452 -5.487241 -3.582459 5.017174 3.588800 6.841247 -3.306090 -11.844196 0.000000 0.000000 0.000000 -17.161680 1.203891 -3.007872 -55.461129 -7.013708 -3.151491 -8.794380 -10.843258 1.158159 0.000000 0.000000 0.000000 13.977691 -7.119755 -4.237993 63.697058 3.388677 -3.963212 8.877059 16.850426 1.782495 0.000000 0.000000 0.000000 
0.001464 0.945749 0.001133 0.186512 -3.939232 9.051288 4.443353 -0.422252 -5.719346 -0.234326 0.190947 -5.055435 1.147664 5.188481 8.895439 0.000000 0.000000 0.000000 -3.792895 0.682944 -7.139633 -2.217574 -0.061170 -4.666940 -0.941539 -7.284542 11.991246 0.000000 0.000000 0.000000 5.441964 0.385337 -6.434323 -2.782434 1.237389 -5.375458 -3.720183 4.866311 3.358757 6.851032 -3.345863 -11.564633 0.000000 0.000000 0.000000 -17.185130 0.710526 -2.792985 -55.449421 -7.252118 -3.012799 -9.232301 -11.320699 1.250047 0.000000 0.000000 0.000000 13.909396 -6.872925 -4.094565 63.925729 3.506088 -3.876298 8.873318 16.988211 1.799509 0.000000 0.000000 0.000000 
0.001525 0.945865 0.001083 0.321259 -3.861123 9.020821 4.181801 -0.437848 -5.885473 -0.195204 0.179683 -4.811859 1.181331 5.235649 8.816227 0.000000 0.000000 0.000000 -3.899441 0.675886 -7.059763 -2.149552 -0.070174 -4.767397 -0.982537 -7.310838 11.868937 0.000000 0.000000 0.000000 5.291313 0.370599 -6.313823 -2.766312 1.228765 -5.654026 -3.613664 4.807901 3.407101 6.705598 -3.229943 -11.709336 0.000000 0.000000 0.000000 -17.177862 0.243686 -2.546842 -55.641762 -7.734072 -2.802745 -9.770565 -11.479908 1.320969 0.000000 0.000000 0.000000 13.989166 -6.539039 -3.944867 63.941740 3.849506 -3.702941 8.816753 17.169365 1.813694 0.000000 0.000000 0.000000 
0.001574 0.945935 0.000939 0.396145 -3.641159 8.939430 4.009395 -0.447464 -5.964916 -0.167411 0.169664 -4.584639 1.180245 5.177605 8.527163 0.000000 0.000000 0.000000 -3.946367 0.667269 -6.972474 -2.223251 -0.071083 -4.865426 -1.106204 -7.508473 11.849022 0.000000 0.000000 0.000000 5.241171 0.364961 -6.268567 -2.768281 1.232184 -5.703351 -3.673366 4.727123 3.427525 6.700447 -3.173764 -12.004649 0.000000 0.000000 0.000000 -17.043076 -0.413555 -2.206524 -55.936886 -8.418211 -2.500205 -10.222640 -11.701351 1.391193 0.000000 0.000000 0.000000 14.163998 -5.949031 -3.664755 63.910012 4.377416 -3.421955 8.911281 17.305898 1.844400 0.000000 0.000000 0.000000 
0.001597 0.945872 0.000733 0.422158 -3.629807 8.905573 4.004755 -0.445208 -5.924595 -0.172221 0.167270 -4.505521 1.090736 4.986716 8.407249 0.000000 0.000000 0.000000 -4.019657 0.668242 -6.999267 -2.174508 -0.072915 -4.852460 -1.064391 -7.448601 11.916012 0.000000 0.000000 0.000000 5.317754 0.366775 -6.267490 -2.767099 1.233146 -5.583771 -3.772056 4.870332 3.325298 6.732460 -3.151172 -12.167880 0.000000 0.000000 0.000000 -17.157197 -0.995696 -1.971969 -56.053698 -8.998618 -2.213339 -10.358253 -11.874897 1.422796 0.000000 0.000000 0.000000 14.358563 -5.571743 -3.471825 63.969707 5.065400 -3.034505 8.860663 17.193438 1.827473 0.000000 0.000000 0.000000 
0.001580 0.945896 0.000544 0.427817 -3.733416 8.880581 4.085519 -0.437133 -5.834110 -0.248763 0.172359 -4.488184 0.967601 4.753723 8.393420 0.000000 0.000000 0.000000 -3.970243 0.663438 -6.918275 -2.235099 -0.072479 -4.898659 -0.919690 -7.183337 11.895371 0.000000 0.000000 0.000000 5.379979 0.369043 -6.262539 -2.845528 1.265135 -5.491686 -3.701353 4.906762 3.266729 6.640889 -3.076233 -12.269547 0.000000 0.000000 0.000000 -17.163679 -1.260419 -1.834239 -56.138441 -9.437548 -2.001555 -10.225379 -11.908030 1.414037 0.000000 0.000000 0.000000 14.316611 -5.086980 -3.233047 63.936200 5.554564 -2.762382 9.139659 17.246509 1.868694 0.000000 0.000000 0.000000 
0.001588 0.945945 0.000416 0.374149 -3.790213 8.816117 4.162201 -0.427933 -5.720338 -0.300875 0.180156 -4.604369 0.880693 4.613705 8.465435 0.000000 0.000000 0.000000 -3.875410 0.659186 -6.853680 -2.359781 -0.063357 -4.853969 -0.862500 -7.115640 11.992091 0.000000 0.000000 0.000000 5.452409 0.370744 -6.245863 -2.809442 1.251285 -5.340706 -3.718485 5.114035 3.107242 6.666707 -3.076857 -12.256971 0.000000 0.000000 0.000000 -17.240353 -1.551902 -1.744347 -55.934099 -9.605675 -1.892731 -10.243479 -11.758705 1.394117 0.000000 0.000000 0.000000 14.554705 -4.838371 -3.105072 63.759461 6.027310 -2.482678 9.307570 17.099579 1.875997 0.000000 0.000000 0.000000 
0.001591 0.946016 0.000341 0.295328 -3.840910 8.802219 4.175369 -0.426040 -5.705366 -0.349275 0.185048 -4.644402 0.754214 4.397954 8.515393 0.000000 0.000000 0.000000 -3.737380 0.665131 -6.927514 -2.439043 -0.058752 -4.845271 -0.824130 -7.108516 12.166480 0.000000 0.000000 0.000000 5.577534 0.378973 -6.295206 -2.790493 1.244784 -5.167082 -3.696883 5.197124 2.922498 6.601547 -3.083094 -11.915233 0.000000 0.000000 0.000000 -17.340340 -1.780730 -1.661781 -55.973851 -9.776940 -1.789446 -10.021007 -11.518641 1.342099 0.000000 0.000000 0.000000 14.379355 -4.606766 -2.965927 63.777491 6.201004 -2.360491 9.269300 17.107199 1.870728 0.000000 0.000000 0.000000 
0.001565 0.946075 0.000300 0.328774 -3.864174 8.829586 4.242925 -0.426739 -5.747539 -0.432673 0.193432 -4.714654 0.783128 4.472032 8.603296 0.000000 0.000000 0.000000 -3.792785 0.666759 -6.948048 -2.451391 -0.058276 -4.846747 -0.763190 -7.012043 12.214718 0.000000 0.000000 0.000000 5.582672 0.379411 -6.304224 -2.819821 1.256912 -5.146822 -3.736865 5.310298 2.850261 6.619322 -3.115737 -11.728412 0.000000 0.000000 0.000000 -17.349819 -1.763079 -1.699605 -55.848657 -9.547329 -1.883172 -9.694073 -11.296797 1.283025 0.000000 0.000000 0.000000 14.417161 -4.539792 -2.918746 63.656461 6.199677 -2.346551 9.500318 17.045695 1.895886 0.000000 0.000000 0.000000 
